<svg xmlns="http://www.w3.org/2000/svg" xmlns:xlink="http://www.w3.org/1999/xlink" id="Layer_1" x="0px" y="0px" viewBox="0 0 512 512" style="enable-background:new 0 0 512 512;" xml:space="preserve">
<g>
	<g>
		<path d="M181.333,277.333h-128C23.915,277.333,0,301.269,0,330.667v128C0,488.064,23.915,512,53.333,512h128    c29.419,0,53.333-23.936,53.333-53.333v-128C234.667,301.269,210.752,277.333,181.333,277.333z M213.333,458.667    c0,17.643-14.357,32-32,32h-128c-17.643,0-32-14.357-32-32V384h192V458.667z M213.333,362.667h-192v-32c0-17.643,14.357-32,32-32    h128c17.643,0,32,14.357,32,32V362.667z"></path>
	</g>
</g>
<g>
	<g>
		<circle cx="53.333" cy="330.667" r="10.667"></circle>
	</g>
</g>
<g>
	<g>
		<path d="M181.333,0h-128C23.915,0,0,23.936,0,53.333v128c0,29.397,23.915,53.333,53.333,53.333h128    c29.419,0,53.333-23.936,53.333-53.333v-128C234.667,23.936,210.752,0,181.333,0z M213.333,181.333c0,17.643-14.357,32-32,32h-128    c-17.643,0-32-14.357-32-32v-74.667h192V181.333z M213.333,85.333h-192v-32c0-17.643,14.357-32,32-32h128    c17.643,0,32,14.357,32,32V85.333z"></path>
	</g>
</g>
<g>
	<g>
		<circle cx="53.333" cy="53.333" r="10.667"></circle>
	</g>
</g>
<g>
	<g>
		<path d="M458.667,277.333h-128c-29.419,0-53.333,23.936-53.333,53.333v128c0,29.397,23.915,53.333,53.333,53.333h128    C488.085,512,512,488.064,512,458.667v-128C512,301.269,488.085,277.333,458.667,277.333z M490.667,458.667    c0,17.643-14.357,32-32,32h-128c-17.643,0-32-14.357-32-32V384h192V458.667z M490.667,362.667h-192v-32c0-17.643,14.357-32,32-32    h128c17.643,0,32,14.357,32,32V362.667z"></path>
	</g>
</g>
<g>
	<g>
		<circle cx="330.667" cy="330.667" r="10.667"></circle>
	</g>
</g>
<g>
	<g>
		<path d="M458.667,0h-128c-29.419,0-53.333,23.936-53.333,53.333v128c0,29.397,23.915,53.333,53.333,53.333h128    c29.419,0,53.333-23.936,53.333-53.333v-128C512,23.936,488.085,0,458.667,0z M490.667,181.333c0,17.643-14.357,32-32,32h-128    c-17.643,0-32-14.357-32-32v-74.667h192V181.333z M490.667,85.333h-192v-32c0-17.643,14.357-32,32-32h128    c17.643,0,32,14.357,32,32V85.333z"></path>
	</g>
</g>
<g>
	<g>
		<circle cx="330.667" cy="53.333" r="10.667"></circle>
	</g>
</g>
<g>
</g>
<g>
</g>
<g>
</g>
<g>
</g>
<g>
</g>
<g>
</g>
<g>
</g>
<g>
</g>
<g>
</g>
<g>
</g>
<g>
</g>
<g>
</g>
<g>
</g>
<g>
</g>
<g>
</g>
</svg>